<?xml version="1.0" encoding="UTF-8"?>
<!DOCTYPE svg PUBLIC "-//W3C//DTD SVG 1.1//EN" "http://www.w3.org/Graphics/SVG/1.1/DTD/svg11.dtd">
<svg xmlns="http://www.w3.org/2000/svg" version="1.1" width="2000px" height="1500px" style="shape-rendering:geometricPrecision; text-rendering:geometricPrecision; image-rendering:optimizeQuality; fill-rule:evenodd; clip-rule:evenodd" xmlns:xlink="http://www.w3.org/1999/xlink">
<g><path style="opacity:1" fill="#ed1703" d="M -0.5,-0.5 C 666.167,-0.5 1332.83,-0.5 1999.5,-0.5C 1999.5,499.5 1999.5,999.5 1999.5,1499.5C 1332.83,1499.5 666.167,1499.5 -0.5,1499.5C -0.5,999.5 -0.5,499.5 -0.5,-0.5 Z"/></g>
<g><path style="opacity:1" fill="#f7dfde" d="M 686.5,281.5 C 812.254,275.364 923.588,311.864 1020.5,391C 1006.17,391.667 991.833,391.667 977.5,391C 881.418,323.313 774.752,296.646 657.5,311C 528.882,331.512 427.382,394.679 353,500.5C 275.908,618.736 257.242,745.736 297,881.5C 339.578,1008.41 421.745,1099.58 543.5,1155C 633.209,1192.64 725.542,1200.64 820.5,1179C 877.861,1165.48 930.195,1141.48 977.5,1107C 991.833,1106.33 1006.17,1106.33 1020.5,1107C 908.091,1197.78 780.091,1232.11 636.5,1210C 500.193,1182.58 394.693,1110.75 320,994.5C 251.111,877.479 233.777,753.145 268,621.5C 307.631,492.317 386.798,395.817 505.5,332C 562.592,303.147 622.925,286.313 686.5,281.5 Z"/></g>
<g><path style="opacity:1" fill="#f7e0e0" d="M 742.5,460.5 C 838.505,461.836 934.505,463.003 1030.5,464C 1071.61,467.639 1106.11,484.473 1134,514.5C 1163.89,555.764 1169.89,600.431 1152,648.5C 1140.6,680.465 1121.1,706.298 1093.5,726C 1080.16,735.34 1066.16,743.674 1051.5,751C 1050.98,751.561 1050.64,752.228 1050.5,753C 1098.95,833.401 1147.29,913.901 1195.5,994.5C 1217.61,1003.46 1240.61,1008.46 1264.5,1009.5C 1263.61,1017.48 1262.95,1025.48 1262.5,1033.5C 1215.49,1034.46 1168.49,1035.62 1121.5,1037C 1072.96,946.087 1024.29,855.254 975.5,764.5C 973.5,764.167 971.5,763.833 969.5,763.5C 942.854,764.926 916.187,765.593 889.5,765.5C 889.634,812.178 890.467,858.845 892,905.5C 893.349,930.32 896.015,954.986 900,979.5C 903.167,986.667 908.333,991.833 915.5,995C 933.341,1001.54 951.674,1006.04 970.5,1008.5C 969.888,1016.84 969.222,1025.17 968.5,1033.5C 891.193,1029.89 813.86,1029.56 736.5,1032.5C 735.943,1024.49 735.277,1016.49 734.5,1008.5C 752.425,1005.44 770.091,1001.27 787.5,996C 798.806,993.029 805.64,985.862 808,974.5C 811.046,935.892 813.046,897.226 814,858.5C 814.667,782.167 814.667,705.833 814,629.5C 812.964,591.777 810.964,554.11 808,516.5C 806.152,507.986 801.318,501.819 793.5,498C 776.27,491.787 758.604,487.287 740.5,484.5C 740.946,476.476 741.613,468.476 742.5,460.5 Z"/></g>
<g><path style="opacity:1" fill="#ed1703" d="M 921.5,497.5 C 948.669,496.374 975.669,497.874 1002.5,502C 1067.92,516.649 1095.09,557.149 1084,623.5C 1077.55,665.612 1057.05,698.779 1022.5,723C 1003.46,727.53 984.125,730.196 964.5,731C 939.513,732.146 914.513,732.646 889.5,732.5C 888.824,662.046 891.324,591.712 897,521.5C 898.471,506.528 906.638,498.528 921.5,497.5 Z"/></g>
</svg>
