<svg xmlns="http://www.w3.org/2000/svg"  viewBox="0 0 64 64" width="128px" height="128px" baseProfile="basic"><linearGradient id="HOaxCdew_So_FZGl4pPQ6a" x1="32" x2="32" y1="9" y2="55" gradientUnits="userSpaceOnUse"><stop offset="0" stop-color="#1a6dff"/><stop offset="1" stop-color="#c822ff"/></linearGradient><path fill="url(#HOaxCdew_So_FZGl4pPQ6a)" d="M49,55H15c-3.309,0-6-2.691-6-6V15c0-3.309,2.691-6,6-6h34c3.309,0,6,2.691,6,6v34	C55,52.309,52.309,55,49,55z M15,11c-2.206,0-4,1.794-4,4v34c0,2.206,1.794,4,4,4h34c2.206,0,4-1.794,4-4V15c0-2.206-1.794-4-4-4H15	z"/><linearGradient id="HOaxCdew_So_FZGl4pPQ6b" x1="32" x2="32" y1="13" y2="51" gradientUnits="userSpaceOnUse"><stop offset="0" stop-color="#6dc7ff"/><stop offset="1" stop-color="#e6abff"/></linearGradient><path fill="url(#HOaxCdew_So_FZGl4pPQ6b)" d="M26.978,22l14.108,20h-3.063L23.914,22H26.978z M51,15v34c0,1.1-0.9,2-2,2H15	c-1.1,0-2-0.9-2-2V15c0-1.1,0.9-2,2-2h34C50.1,13,51,13.9,51,15z M44.914,44L34.789,29.613L43,20h-2.5l-6.841,8.009L28.022,20	h-7.937l9.222,13.103L20,44h2.5l7.937-9.292L36.978,44H44.914z"/></svg>